<svg xmlns="http://www.w3.org/2000/svg" xmlns:xlink="http://www.w3.org/1999/xlink" id="Layer_1" x="0px" y="0px" viewBox="0 0 300 150" style="enable-background:new 0 0 300 150;" xml:space="preserve"><style type="text/css">	.st0{fill:#D269E6;}</style><g id="XMLID_00000106833732470349908700000015041636405383260065_">	<path id="XMLID_00000023974582068468991410000005733026686635731873_" class="st0" d="M262.25,84.33c-0.09,0.12-0.21,0.1-0.26,0.15  c-0.58,0.6-1.16,1.21-1.74,1.82c-0.75-0.63-1.49-1.28-2.26-1.89c-0.22-0.17-0.53-0.33-0.8-0.32c-0.24,0.01-0.47,0.26-0.7,0.41  c0.03-0.3,0.07-0.61,0.09-0.91c0.09-1.14,1.1-2.04,0.86-3.26c0.77-0.15,0.36-0.71,0.38-1.11c0.79-0.31,1.02-0.9,0.83-1.7  c0.77-0.15,0.36-0.71,0.38-1.11c0.79-0.31,1.02-0.9,0.83-1.7c0.79-0.31,1.02-0.9,0.83-1.7c0.77-0.15,0.36-0.71,0.38-1.11  c1.31-0.99,1.3-2.52,1.59-3.92c0.24-0.22,0.64-0.39,0.71-0.66c0.39-1.47,1.28-2.79,1.25-4.49c-0.01-0.04,0.01,0.04,0.02,0.12  c0.13-0.07,0.28-0.11,0.37-0.21c0.03-0.03-0.08-0.2-0.13-0.3c-0.09,0.09-0.18,0.19-0.26,0.4c-2.28,1.41-4.31,3.04-6.21,4.86  c-0.51,0.5-1.25,0.76-1.82,1.21c-2.68,2.12-5.41,4.15-8.31,5.97c-3.29,2.06-6.56,4.14-9.99,5.97c-2.86,1.53-5.55,3.33-8.64,4.45  c-0.96,0.35-1.88,0.93-2.85,1.37c-0.9,0.41-1.78,1.11-2.74,1.54c-2.24,0.99-4.61,1.71-6.76,2.85c-2.41,1.28-5.2,1.43-7.54,2.95  c-1.14,0.74-2.68,1.05-4.06,1.12c-0.76,0.04-1.14,1.09-1.95,0.51c-0.85-0.6-0.98,0.69-1.75,0.67c-0.79-0.02-1.63,0.8-2.4,0.71  c-1-0.11-1.69,1.17-2.7,0.43c-0.97,0.82-2.19,0.94-3.36,0.94c-0.95-0.01-1.68,0.18-2.56,0.62c-1.58,0.79-3.41,1.07-5.21,0.63  c-0.49-0.12-0.92-0.22-0.91,0.38c0.01,0.64-0.31,0.71-0.77,0.74c-2.57,0.11-5.07,1.15-7.69,0.63c-0.81,0.7-1.84,0.64-2.8,0.78  c-1.21,0.18-2.48,0.61-3.63,0.41c-1.14-0.19-1.94,0.56-2.96,0.49c-1.25-0.08-2.51-0.11-3.75-0.02c-1.31,0.09-2.69,0.69-3.88,0.41  c-1.43-0.34-2.7,0.08-4.04,0.09c-0.9,0.01-1.81-0.14-2.72-0.14c-0.91,0-1.85,0.51-2.72-0.18c-1.5,0.58-3.02-0.14-4.54,0.05  c-0.97,0.12-1.98-0.02-2.97-0.11c-2.94-0.25-5.88-0.33-8.82-0.77c-2.33-0.35-4.72-0.49-7.07-0.8c-3.22-0.42-6.39-1.19-9.59-1.63  c-1.54-0.21-3.01-0.68-4.56-0.84c-1.42-0.15-2.77-1.1-4.18-1.19c-2.4-0.15-4.61-0.97-6.89-1.5c-2.11-0.5-4.22-1.12-6.24-2.02  c-1.62-0.72-3.43-0.9-5.11-1.55c-5.24-2.04-10.59-3.74-15.66-6.28c-3.06-1.53-6.36-2.63-9.36-4.31c-2.39-1.34-4.9-2.46-7.27-3.83  c-1.23-0.71-2.42-1.51-3.73-2.05c-1.35-0.56-2.06-2.14-3.67-2.21c-0.09-1.01-1.09-0.83-1.64-1.23c-2.93-2.13-5.85-4.28-8.88-6.28  c-1.1-0.73-1.8-1.86-3.04-2.45c-1.16-0.55-2.12-1.52-3.15-2.34c-0.83-0.66-1.61-1.39-2.43-2.06c-0.77-0.63-1.57-1.22-2.35-1.85  c-0.87-0.71-1.86-1.32-2.54-2.18c-1.53-1.97-3.36-3.58-5.39-5c-0.67-0.47-0.86-1.01-0.42-1.76c0.29-0.49,0.47-1.05,0.74-1.55  c0.38-0.71,0.82-1.04,1.62-0.38c0.48,0.4,1.16,0.58,1.75,0.85c0.45-0.98,1.06-0.51,1.67-0.21c0.11,0.05,0.33-0.06,0.46-0.14  c0.61-0.39,1.25-1.17,1.81-1.11c0.67,0.07,1.22,0.92,1.9,1.29c1.32,0.72,2.39,1.74,3.48,2.72c1.04,0.93,1.92,2.05,2.87,3.09  c0.12,0.13,0.28,0.21,0.41,0.32c2.32,1.92,4.63,3.86,6.96,5.77c0.67,0.56,1.38,1.08,2.09,1.59c0.62,0.45,1.13,1.02,1.7,1.52  c0.62,0.54,1.57,0.58,1.96,1.31c0.43,0.79,1.27,0.9,1.87,1.39c0.61,0.5,1.22,1.01,1.88,1.43c0.7,0.45,1.16,1.25,2.17,1.31  c0.28,0.02-0.18,1.3,1.03,0.95c0.43-0.12,1.1,0.68,1.69,1.03c0.64,0.38,1.34,0.66,1.97,1.06c0.59,0.37,1.07,0.94,1.69,1.24  c1.17,0.58,2.09,1.51,3.47,1.86c1.14,0.29,2.03,1.42,3.24,1.95c2.05,0.9,3.97,2.06,5.96,3.09c1.97,1.02,4.03,1.95,6.08,2.63  c2.32,0.77,4.3,2.43,6.84,2.58c0.14,0.01,0.27,0.21,0.42,0.3c1.17,0.8,2.49,1.23,3.86,1.54c1.14,0.25,2.16,0.75,3.17,1.32  c0.99,0.55,2.17,0.47,3.25,1.09c1.2,0.69,2.78,0.78,4.21,1.03c3.98,0.72,7.76,2.35,11.82,2.72c1.52,0.92,3.33,0.58,4.97,1.16  c1.35,0.48,2.88,0.59,4.31,0.7c1.81,0.13,3.55,0.81,5.35,0.66c2.09-0.18,4.05,0.83,6.14,0.56c0.54-0.07,1.11,0.2,1.67,0.28  c2.36,0.34,4.79-0.16,7.11,0.62c0.3,0.1,0.69-0.1,1.03-0.12c2.12-0.12,4.28-0.52,6.34-0.23c1.59,0.22,3.06-0.29,4.55-0.14  c3.49,0.36,6.86-0.92,10.26-0.79c3.33,0.13,6.49-0.69,9.74-0.85c1.24-0.06,2.22-0.83,3.36-0.97c1.32-0.16,2.67-0.85,4.01-0.05  c0.78-0.99,2.06-0.59,3.03-1.07c0.44-0.22,0.88-0.46,1.35-0.57c2.07-0.48,4.13-0.96,6.22-1.36c0.82-0.15,1.42-1.52,2.46-0.46  c0.68-0.39,1.34-0.81,2.03-1.15c0.3-0.15,0.68-0.11,1.01-0.2c0.97-0.28,2.1,0.08,2.95-0.71c0.77-0.72,2.14,0.06,2.73-1.1  c2.32,0.22,4-1.61,6.18-1.95c1.33-0.21,2.68-0.83,3.82-1.58c0.7-0.46,1.57-0.38,2.04-0.81c0.6-0.54,1.23-0.49,1.84-0.73  c1.13-0.45,2.29-0.9,3.27-1.59c1.08-0.75,2.6-0.65,3.42-1.89c0.13-0.19,0.82-0.13,1.2,0c0.33,0.11,0.68,0.42,0.58-0.19  c-0.15-0.95,1.07-0.49,1.09-1.18c1.14-0.26,2.27-0.5,3.07-1.51c0.09-0.12,0.59,0.12,0.9,0.14c0.5,0.03,1.01,0.03,1.5-0.02  c0.14-0.01,0.26-0.26,0.39-0.4c-1.58-1.15,0.26-1.45,0.6-1.67c1.76-1.15,3.68-2.03,5.34-3.37c0.44-0.35,1.3-0.83,1.51,0.4  c0,0.01,0.33-0.03,0.5-0.05c-0.28-2.16,1.31-2.4,2.93-2.76c0.04-0.01-0.04,0.01-0.12,0.02c0.07,0.13,0.11,0.28,0.21,0.37  c0.03,0.03,0.2-0.08,0.3-0.13c-0.09-0.09-0.19-0.18-0.4-0.26c1.01-1.38,2.38-2.47,4.02-3.18c0.15-0.07,0.4-0.02,0.48-0.12  c2.16-2.66,5.33-4.12,7.71-6.49c1.07-1.07,2.39-1.72,3.49-2.69c0.15-0.14,0.24-0.59,0.13-0.73c-0.13-0.18-0.6-0.33-0.73-0.24  c-0.69,0.5-1.31-0.35-2.06,0c-0.68,0.31-1.54,0.25-2.32,0.36c-0.78,0.1-1.59,0.39-2.33,0.28c-2.6-0.39-5.12,0.51-7.65,0.44  c-1.62-0.04-3.29,0.44-4.77,0.1c-2.3-0.52-4.5,0.79-6.77-0.01c-0.66-0.23-1.54,0.22-2.32,0.24c-0.64,0.01-1.31-0.3-1.93-0.22  c-0.78,0.1-1.47-0.18-2.2-0.24c-1.84-0.14-3.04-1.63-4.72-2.09c-0.12-0.03-0.23-0.23-0.29-0.38c-0.35-0.84,0.51-2.76,1.36-2.89  c2.68-0.4,5.38-1.05,8.05-0.98c1.63,0.05,3.2-0.17,4.8-0.22c1.08-0.03,2.16,0.03,3.23,0.09c0.99,0.05,1.9-0.28,3,0  c1.34,0.34,2.92-0.21,4.38-0.48c1.52-0.28,3.02-0.29,4.52-0.02c0.08,0.01,0.13,0.11,0.21,0.15c0.13,0.07,0.31,0.22,0.39,0.18  c2.36-1.27,4.97-0.98,7.5-1.25c0.66-0.07,1.3-0.36,1.96-0.46c2.6-0.37,5.22-0.57,7.78-1.1c1.8-0.37,3.55,0.16,5.33-0.11  c0.63-0.1,1.08,0.35,1.23,1.04c0.11,0.48,0.27,0.96,0.51,1.38c0.08,0.14,0.48,0.09,0.74,0.13c-0.03-0.26-0.07-0.52-0.1-0.78  c2.59,1,2.41,0.98,2.14,3.72c-0.24,2.41-1.34,4.5-2,6.74c-1.11,3.76-2.8,7.3-4.5,10.83c-1.39,2.89-2.88,5.74-4.24,8.65  c-1.07,2.27-2.8,4.15-3.64,6.54c-0.17,0.47-0.55,0.91-0.95,1.24c-0.61,0.51-1.32,0.92-1.98,1.37  C262.94,85.71,262.26,85.16,262.25,84.33c0.12-0.02,0.31,0.08,0.45,0.24c0.35,0.39,0.55,0.17,0.73-0.16  c0.81-1.54,1.63-3.06,2.42-4.61c0.74-1.46,1.34-3.01,2.18-4.41c0.64-1.07,1.22-2.12,1.67-3.31c0.46-1.19,1.45-2.2,1.68-3.57  c0.06-0.39,0.19-0.81,0.41-1.14c0.55-0.84,1.07-1.57,1.23-2.7c0.12-0.85,0.78-1.74,1.08-2.7c0.46-1.47,1.22-2.84,1.78-4.28  c0.62-1.58,1.17-3.19,1.72-4.8c0.08-0.22,0.03-0.59-0.11-0.75c-0.17-0.2-0.59-0.41-0.77-0.33c-0.28,0.13-0.6,0.48-0.64,0.78  c-0.25,1.88-1.36,3.45-1.79,5.28c-0.53,2.28-1.55,4.44-2.52,6.59c-1.1,2.44-1.87,5.03-3.03,7.44c-1.77,3.66-3.62,7.29-5.8,10.73  C262.63,83.11,262.48,83.68,262.25,84.33z M258.32,81.21c0.09-0.1,0.18-0.19,0.27-0.29c-0.09-0.07-0.18-0.13-0.26-0.2  c-0.07,0.11-0.14,0.22-0.19,0.34c-0.01,0.02,0.11,0.09,0.39-0.61c0.01,0.08,0.02,0.15,0.03,0.23c0.13-0.07,0.28-0.11,0.37-0.21  c0.03-0.03-0.08-0.2-0.13-0.3C258.71,80.28,258.62,80.37,258.32,81.21z M266.07,64.01c0.11-0.43,0.19-0.62,0.2-0.81  c0.02-0.16-0.04-0.32-0.06-0.48c-0.16,0.14-0.42,0.27-0.45,0.43c-0.04,0.19,0.13,0.42,0.41-0.67c0.01,0.08,0.02,0.15,0.03,0.23  c0.13-0.07,0.28-0.11,0.37-0.21c0.03-0.03-0.08-0.2-0.13-0.3C266.37,62.3,266.27,62.39,266.07,64.01z M262.93,70.63  c0.16,0.16,0.28,0.29,0.41,0.42c0.08-0.13,0.23-0.28,0.21-0.39c-0.04-0.21-0.18-0.41-0.28-0.61c-0.1,0.17-0.2,0.34-0.41,1.56  c0.09-0.1,0.18-0.19,0.27-0.29c-0.09-0.07-0.18-0.13-0.26-0.2c-0.07,0.11-0.14,0.22-0.19,0.34  C262.67,71.48,262.79,71.55,262.93,70.63z M264.2,68.01c0.16,0.1,0.3,0.24,0.36,0.21c0.48-0.23,0.77-1.22,0.55-1.84  c-0.03-0.07-0.11-0.18-0.15-0.18c-0.12,0.02-0.32,0.07-0.34,0.15c-0.16,0.54-0.28,1.09-0.55,2.43c0.09-0.1,0.18-0.19,0.27-0.29  c-0.09-0.07-0.18-0.13-0.26-0.2c-0.07,0.11-0.14,0.22-0.19,0.34C263.88,68.67,264,68.74,264.2,68.01z M198.88,96  c-0.38,0.22-0.51,0.3-0.65,0.38c0.16,0.09,0.32,0.24,0.5,0.26c0.12,0.02,0.27-0.14,0.4-0.22C199.03,96.25,198.93,96.08,198.88,96z   M268.97,63.87c0.11,0.16,0.25,0.35,0.38,0.54c0.07-0.14,0.22-0.31,0.19-0.43c-0.05-0.22-0.21-0.41-0.33-0.62  C269.14,63.52,269.08,63.66,268.97,63.87z M260.04,84.39c-0.08-0.06-0.14-0.11-0.21-0.16c-0.04,0.12-0.11,0.25-0.12,0.37  c0,0.04,0.12,0.1,0.19,0.15C259.94,84.63,259.99,84.51,260.04,84.39z M257.9,82.3c0.1-0.07,0.21-0.15,0.31-0.23  c-0.07-0.05-0.15-0.16-0.19-0.14c-0.12,0.04-0.22,0.14-0.33,0.21C257.76,82.19,257.82,82.24,257.9,82.3z M261.71,79.93  c0.07,0.1,0.15,0.21,0.23,0.31c0.05-0.07,0.16-0.15,0.14-0.19c-0.04-0.12-0.14-0.22-0.21-0.33  C261.82,79.79,261.77,79.85,261.71,79.93z M260.05,77.39c-0.1,0.07-0.21,0.15-0.31,0.23c0.07,0.05,0.15,0.15,0.19,0.14  c0.12-0.04,0.22-0.14,0.33-0.21C260.19,77.51,260.12,77.46,260.05,77.39z M260.73,75.71c-0.06,0.08-0.11,0.14-0.16,0.21  c0.12,0.04,0.25,0.11,0.37,0.12c0.04,0,0.1-0.12,0.15-0.19C260.97,75.81,260.84,75.76,260.73,75.71z M261.71,73.99  c-0.1,0.07-0.21,0.15-0.31,0.23c0.07,0.05,0.15,0.16,0.19,0.14c0.12-0.04,0.22-0.14,0.33-0.21  C261.85,74.1,261.79,74.05,261.71,73.99z M261.99,73.27c0.1-0.07,0.21-0.15,0.31-0.23c-0.07-0.05-0.15-0.16-0.19-0.14  c-0.12,0.04-0.22,0.14-0.33,0.21C261.84,73.16,261.91,73.21,261.99,73.27z M267.24,69.01c-0.06,0.08-0.11,0.14-0.16,0.21  c0.12,0.04,0.25,0.11,0.37,0.12c0.04,0,0.1-0.12,0.15-0.19C267.48,69.11,267.36,69.06,267.24,69.01z M265.42,64.68  c0.07,0.05,0.15,0.15,0.19,0.14c0.12-0.04,0.22-0.14,0.33-0.21c-0.07-0.05-0.15-0.16-0.19-0.14  C265.62,64.51,265.52,64.61,265.42,64.68z M247.95,66.76c0.05-0.07,0.16-0.15,0.14-0.19c-0.04-0.12-0.14-0.22-0.21-0.33  c-0.05,0.07-0.15,0.15-0.14,0.19C247.78,66.55,247.88,66.65,247.95,66.76z M266.99,61.21c-0.08-0.06-0.14-0.11-0.21-0.16  c-0.04,0.12-0.1,0.25-0.12,0.37c0,0.04,0.12,0.1,0.19,0.15C266.9,61.45,266.95,61.33,266.99,61.21z M267.25,60.01  c-0.1,0.07-0.21,0.15-0.31,0.23c0.07,0.05,0.15,0.16,0.19,0.14c0.12-0.04,0.22-0.14,0.33-0.21  C267.39,60.12,267.33,60.07,267.25,60.01z M254.54,61.18c-0.06,0.08-0.11,0.14-0.16,0.21c0.12,0.04,0.25,0.11,0.37,0.12  c0.04,0,0.1-0.12,0.15-0.19C254.78,61.27,254.66,61.23,254.54,61.18z M271.48,57.96c0.07,0.1,0.15,0.21,0.23,0.31  c0.05-0.07,0.15-0.15,0.14-0.19c-0.04-0.12-0.14-0.22-0.21-0.33C271.59,57.82,271.54,57.89,271.48,57.96z M256.86,59.55  c0.08,0.06,0.14,0.11,0.21,0.16c0.04-0.12,0.11-0.25,0.12-0.37c0-0.04-0.12-0.1-0.19-0.15C256.95,59.31,256.9,59.43,256.86,59.55z   M272.92,54.86c0.06-0.08,0.11-0.14,0.16-0.21c-0.12-0.04-0.25-0.11-0.37-0.12c-0.04,0-0.1,0.12-0.15,0.19  C272.68,54.77,272.8,54.81,272.92,54.86z M274.98,47.7c0.1-0.07,0.21-0.15,0.31-0.23c-0.07-0.05-0.15-0.15-0.19-0.14  c-0.12,0.04-0.22,0.14-0.33,0.21C274.84,47.58,274.9,47.63,274.98,47.7z M44.54,63.37c-0.06,0.08-0.11,0.14-0.16,0.21  c0.12,0.04,0.25,0.11,0.37,0.12c0.04,0,0.1-0.12,0.15-0.19C44.78,63.46,44.65,63.41,44.54,63.37z"></path>	<path id="XMLID_00000099642575545401132430000011888253305219540652_" class="st0" d="M260.18,73.06c0.03-0.41-0.39-0.96,0.38-1.11  c0.05,0.35,0.09,0.69,0.14,1.04C260.53,73.02,260.36,73.04,260.18,73.06z"></path>	<path id="XMLID_00000162310999326181131810000007170980640336062116_" class="st0" d="M259.87,74.69  c-0.17,0.02-0.35,0.05-0.52,0.07c0.03-0.4-0.39-0.96,0.38-1.11C259.78,74,259.82,74.35,259.87,74.69z"></path>	<path id="XMLID_00000178174789691218786210000006147328381798598046_" class="st0" d="M256.35,82.05  c-0.07-0.11-0.17-0.21-0.21-0.33c-0.02-0.04,0.09-0.13,0.14-0.19c0.07,0.11,0.17,0.21,0.21,0.33  C256.51,81.9,256.4,81.99,256.35,82.05z"></path>	<path id="XMLID_00000075132149709881238720000015707758820619998890_" class="st0" d="M256.69,80.9c-0.07-0.05-0.19-0.12-0.18-0.14  c0.05-0.12,0.12-0.23,0.19-0.34c0.09,0.07,0.18,0.13,0.26,0.2C256.87,80.71,256.78,80.81,256.69,80.9z"></path>	<path id="XMLID_00000047740034072810917520000009539764376017460119_" class="st0" d="M256.93,80.39c0.1-0.16,0.19-0.32,0.29-0.48  c0.08,0.14,0.15,0.27,0.23,0.41C257.27,80.34,257.1,80.36,256.93,80.39z"></path>	<path id="XMLID_00000096045327707859995380000002032854565840190598_" class="st0" d="M257.31,78.97c0.05-0.07,0.12-0.19,0.14-0.18  c0.12,0.05,0.23,0.12,0.34,0.19c-0.07,0.09-0.13,0.18-0.2,0.26C257.5,79.15,257.4,79.06,257.31,78.97z"></path>	<path id="XMLID_00000145752141884424831920000015106007525349316490_" class="st0" d="M258.14,77.27c0.05-0.07,0.12-0.19,0.14-0.18  c0.12,0.05,0.23,0.12,0.34,0.19c-0.07,0.09-0.13,0.18-0.2,0.26C258.33,77.45,258.24,77.36,258.14,77.27z"></path>	<path id="XMLID_00000020362402370814606700000000112615544222792613_" class="st0" d="M258.52,76.16c0.05-0.07,0.12-0.19,0.14-0.18  c0.12,0.05,0.23,0.12,0.34,0.19c-0.07,0.09-0.13,0.18-0.2,0.26C258.71,76.33,258.62,76.24,258.52,76.16z"></path>	<path id="XMLID_00000111157954151614161960000006399461325586314894_" class="st0" d="M259.11,75.28  c-0.07-0.05-0.19-0.12-0.18-0.14c0.05-0.12,0.12-0.23,0.19-0.34c0.09,0.07,0.18,0.13,0.26,0.2  C259.29,75.09,259.2,75.19,259.11,75.28z"></path>	<path id="XMLID_00000157283505640788206590000017263804635594296487_" class="st0" d="M259.73,73.65c0.15-0.2,0.3-0.39,0.45-0.59  C260.03,73.26,259.88,73.46,259.73,73.65z"></path>	<path id="XMLID_00000017476848150423608930000016565100982420334262_" class="st0" d="M260.56,71.95c0.1-0.16,0.19-0.32,0.29-0.48  c0.08,0.14,0.15,0.27,0.23,0.41C260.91,71.91,260.74,71.93,260.56,71.95z"></path>	<path id="XMLID_00000037654815935264828040000003463095467598869384_" class="st0" d="M232.94,74.78c0.06-0.08,0.11-0.14,0.16-0.21  c0.07,0.11,0.17,0.21,0.21,0.33c0.02,0.04-0.09,0.13-0.14,0.19C233.1,74.99,233.02,74.88,232.94,74.78z"></path>	<path id="XMLID_00000101096870601468478200000003926617854611294353_" class="st0" d="M261.12,70.74  c-0.08-0.06-0.14-0.11-0.21-0.16c0.11-0.07,0.21-0.17,0.33-0.21c0.04-0.02,0.13,0.09,0.19,0.14  C261.33,70.59,261.22,70.67,261.12,70.74z"></path>	<path id="XMLID_00000154406547390818697070000002806420753752971935_" class="st0" d="M261.36,69.39c0.06-0.08,0.11-0.14,0.16-0.21  c0.07,0.11,0.17,0.21,0.21,0.33c0.02,0.04-0.09,0.13-0.14,0.19C261.51,69.59,261.43,69.49,261.36,69.39z"></path>	<path id="XMLID_00000028308452534886774860000017858668789800877993_" class="st0" d="M262.16,67.72c0.05-0.07,0.12-0.19,0.14-0.18  c0.12,0.05,0.23,0.12,0.34,0.19c-0.07,0.09-0.13,0.18-0.2,0.26C262.35,67.9,262.25,67.81,262.16,67.72z"></path>	<path id="XMLID_00000052096453889006444960000000004964334559941785_" class="st0" d="M262.5,66.66c0.11-0.07,0.21-0.17,0.33-0.21  c0.04-0.02,0.13,0.09,0.19,0.14c-0.11,0.07-0.21,0.17-0.33,0.21C262.65,66.81,262.57,66.71,262.5,66.66z"></path>	<path id="XMLID_00000135656250529677789560000015514833842254458042_" class="st0" d="M263.04,65.34c0.12,0.05,0.24,0.09,0.36,0.14  c-0.05,0.07-0.11,0.19-0.15,0.19c-0.13-0.01-0.25-0.07-0.37-0.12C262.93,65.48,262.98,65.42,263.04,65.34z"></path>	<path id="XMLID_00000137852672002968451050000010159492541449527194_" class="st0" d="M277.41,47.14c0.05-0.07,0.12-0.19,0.14-0.18  c0.12,0.05,0.23,0.12,0.34,0.19c-0.07,0.09-0.13,0.18-0.2,0.26C277.6,47.32,277.51,47.23,277.41,47.14z"></path></g></svg>